<!-- Generated by IcoMoon.io -->
<svg version="1.1" xmlns="http://www.w3.org/2000/svg" width="1024" height="1024" viewBox="0 0 1024 1024">
<title></title>
<g id="icomoon-ignore">
</g>
<path fill="#000" d="M989.4 363.2l-93-123.938c-3.627-4.867-7.936-9.083-12.4-13.113v-148.149c0-34.224-27.776-62-62-62h-620c-34.255 0-62 27.776-62 62v148.18c-4.464 3.999-8.773 8.184-12.4 13.020l-92.969 123.969c-12.028 15.996-18.631 35.805-18.631 55.831v31c0 51.274 41.726 93 93 93v0 403c0 34.224 27.776 62 62 62h682c34.224 0 62-27.776 62-62v-403c51.274 0 93-41.726 93-93v-31c0-20.026-6.603-39.835-18.6-55.8zM822 78v124h-620v-124h620zM331.983 481h-129.859l124-217h67.859l-62 217zM426.254 264h70.246v217h-132.246l62-217zM527.5 264h70.246l62 217h-132.246v-217zM629.955 264h67.859l124 217h-129.859l-62-217zM78 450v-31c0-6.727 2.17-13.237 6.2-18.6l93-124c5.859-7.812 15.035-12.4 24.8-12.4h88.412l-124 217h-57.412c-17.112 0-31-13.857-31-31zM636 946h-232.5v-310h232.5v310zM853 946h-186v-310c0-17.143-13.919-31-31-31h-232.5c-17.112 0-31 13.857-31 31v310h-201.5v-403h682v403zM946 450c0 17.143-13.857 31-31 31h-57.474l-124-217h88.474c9.734 0 18.941 4.588 24.769 12.4l93 124c4.061 5.363 6.231 11.873 6.231 18.6v31z"></path>
</svg>
